# xmcd CD database file
#
# Track frame offsets:
#	150
#	19178
#	37042
#	63459
#	78606
#	93369
#	109395
#	130034
#	145313
#	158765
#
# Disc length: 2308 seconds
#
# Revision: 0
# Processed by: cddbd v1.5.1PL0 Copyright (c) Steve Scherf et al.
# Submitted via: CDex 1.51
#
DISCID=8609020a
DTITLE=Paul Gregory - Paul Gregory
DYEAR=2004
DGENRE=Country
TTITLE0=Alli's Song
TTITLE1=I Ain't Givin' Up, I Ain't Givin' In
TTITLE2=On My Knees Lord
TTITLE3=I Know Someone
TTITLE4=Don't Let Wrong Choices (Choose Your Destiny)
TTITLE5=It Ain't The Bars And The Walls That Make A Prison
TTITLE6=Momma Had A Friend
TTITLE7=Sammy's Song
TTITLE8=Momma Raised Me Right
TTITLE9=Cling To Your Salvation
EXTD=YEAR: 2004
EXTT0=
EXTT1=
EXTT2=
EXTT3=
EXTT4=
EXTT5=
EXTT6=
EXTT7=
EXTT8=
EXTT9=
PLAYORDER=
